<svg version="1.1" id="Layer_1" xmlns="http://www.w3.org/2000/svg" xmlns:xlink="http://www.w3.org/1999/xlink" x="0" y="0" viewBox="0 0 520 390" xml:space="preserve"><style>.st0{fill:#1187fa}.st2{fill-rule:evenodd;clip-rule:evenodd;fill:#fff}.st5{fill:none;stroke:#9aa0a6;stroke-width:1.77;stroke-linecap:round;stroke-linejoin:round}.st6{fill:#23a64d}.st10{fill:#fcbc00}.st14,.st15{fill-rule:evenodd;clip-rule:evenodd;fill:#4285f4}.st15{fill:#f538a0}.st19{fill:none;stroke:#fa7b17;stroke-width:5.32;stroke-miterlimit:10}.st29{fill-rule:evenodd;clip-rule:evenodd;fill:#dadce0}.st30{fill:none;stroke:#f1f3f4;stroke-width:5.82;stroke-linecap:round;stroke-linejoin:round}.st31{fill:none;stroke:#5f6368;stroke-width:3.88;stroke-miterlimit:10}.st35,.st36{fill:none;stroke-linecap:round}.st35{stroke-miterlimit:10;stroke:#5f6368;stroke-width:3.88}.st36{stroke:#686c71;stroke-width:3.46;stroke-linejoin:round}</style><path class="st0" d="M339.3 70.1c-16.7-8.8-35.8-5-49.1 7.8.3 17.5 4.3 33.9 11.2 47.7-6.9-13.9-10.9-30.3-11.2-47.7-4.9 4.8-8.9 10.6-11.5 17-1.4 3.4-2.5 7-3.3 10.6l-.3 1.8c-.2 1-.3 1.9-.5 2.8-3.8 26.2-.5 56.5 13.8 68.4-1.4-.4-2.9.2-3.5 1.5-.7 1.5-.1 3.3 1.4 4l10.4 5c1.4.9 3.2.6 4.2-.8s.6-3.2-.8-4.2c-.3-.2-.6-.3-.9-.4l-1.6-.8c12.2 1.9 29.3-6.6 43.2-19.3 3.8-3.5 7.4-7.2 10.6-11.3 3.8-4.3 6.9-9.2 9.2-14.5.1-.3.2-.7.4-1 .1-.2.2-.3.2-.5 9.9-25 .3-54.4-21.9-66.1z"/><linearGradient id="SVGID_1_" gradientUnits="userSpaceOnUse" x1="293.397" y1="44.603" x2="126.937" y2="442.403" gradientTransform="matrix(1 0 0 -1 0 392)"><stop offset="0" stop-color="#e8eaed"/><stop offset=".16" stop-color="#e8eaed" stop-opacity=".82"/><stop offset=".58" stop-color="#e8eaed" stop-opacity=".38"/><stop offset=".87" stop-color="#e8eaed" stop-opacity=".11"/><stop offset="1" stop-color="#e8eaed" stop-opacity="0"/></linearGradient><path d="M58.4 385.1C43 360.8-33.4 246.7 39.6 235.7s90.8-6.8 71.1-28.6-86-30.9-68.3-76.1S193.2 85.4 173 62s30.4-53.8 81.5-51.7S411 28.5 395.8 76.2s-111.1 48.4-63.2 75.5S561.4 215 499.9 281.1c-37.7 40.4-76.9 16.3-93.6 34.9-12.8 14.2 43.6 64.8 5.7 70.7" opacity=".5" fill="url(#SVGID_1_)"/><path class="st2" d="M264.9 82.9c.9-10.6 9.8-18.8 20.5-18.7 2.7 0 5.3.5 7.7 1.5 5.3-16.7 19.9-28.9 37.3-31.2 2.2-.3 4.3-.5 6.5-.5 18-.1 34.4 10.4 41.9 26.7 3.6-1.7 7.6-2.6 11.6-2.6 14.2-.1 26 10.7 27.2 24.8H264.9zM189.8 158.2c-2.9 0-5.8.7-8.5 1.9-5.2-12.2-17.2-20-30.4-20.1-1.6 0-3.2.1-4.7.4-16.4 2.5-28.6 16.6-28.5 33.2 0 1.1.1 2.1.2 3.1h91.8c-.9-10.4-9.5-18.5-19.9-18.5M103.5 260c.5-6.4 5.9-11.3 12.3-11.2 1.6 0 3.2.3 4.7.9a27.23 27.23 0 0122.4-18.8c1.3-.2 2.6-.3 3.9-.3 10.8-.1 20.7 6.2 25.2 16.1 2.2-1 4.6-1.5 7-1.5 8.5-.1 15.7 6.4 16.4 14.9h-91.9z"/><path d="M457.5 194.2c34.7 31 14.2 64.6-15.6 62.7-36.8-2.4-49.2-60.9-75.4-48.5s-13.1 64.6 10.3 59.8 22.7-71.3-18.8-84.1-45.7 65.8-78 80.3c-32.6 14.7-117.3 56.3-167.5 15.2-52-42.5-73.6-23.8-83.6-13.4-13.2 13.7-11.4 51.5-2 73" fill="none" stroke="#fff" stroke-width="1.77" stroke-miterlimit="10"/><path d="M363.2 386.3c2-3.9 3.8-7.5 5.5-10.9 11.9-24.7 13.8-35.6 5.8-32.7-4.1 1.2-9.1 5.7-15 13.5 18.7-38.7 23.8-59.2 15.4-61.5-8.4-2.3-16.1 14.7-23.1 51.1 3.7-57.4-1.2-80.1-14.5-68.1s-12.3 35.5 3.3 70.3c-13.2-31.3-22.8-43.2-28.6-35.5-5.8 7.6 6.5 39.9 26.2 73.7" fill="none" stroke="#fff" stroke-width="1.77" stroke-linecap="round" stroke-linejoin="round"/><path class="st5" d="M204.9 152.6l.2 42.4.3 64"/><path class="st6" d="M210.8 164.3c-.3-1.3-1.5-2.1-2.8-1.9l-2.7.4c3.6-1.2 7.1-4.1 10.2-8.2-.4.1-.9.3-1.3.3-21.8 3.8-43.8-18.4-49.2-49.5-2.5-14.2-1-27.9 3.4-38.9-11.7 8.9-17.4 23.6-14.8 38 .3 1.4.6 2.9 1 4.3 4.3 24 29.8 55.1 47.2 54.5l-2.6.4c-1.2.1-2.1 1.2-1.9 2.4v.2l.1.4c.3 1.3 1.5 2.1 2.8 1.9l8.8-1.3c1.2-.1 2.1-1.2 1.9-2.4v-.2l-.1-.4z"/><path class="st6" d="M164.9 105.5c5.4 31.1 27.4 53.2 49.2 49.5.5-.1.9-.2 1.3-.3 11.1-14.6 18.2-44.2 14.8-63-3.8-21.3-24.1-35.8-45.3-32.2-6.1 1-11.8 3.5-16.7 7.2-4.3 10.9-5.8 24.5-3.3 38.8z"/><path d="M210.8 164.3c-.3-1.3-1.5-2.1-2.8-1.9l-2.7.4c3.6-1.2 7.1-4.1 10.2-8.2-.4.1-.9.3-1.3.3-21.8 3.8-43.8-18.4-49.2-49.5-2.5-14.2-1-27.9 3.4-38.9-11.7 8.9-17.4 23.6-14.8 38 .3 1.4.6 2.9 1 4.3 4.3 24 29.8 55.1 47.2 54.5l-2.6.4c-1.2.1-2.1 1.2-1.9 2.4v.2l.1.4c.3 1.3 1.5 2.1 2.8 1.9l8.8-1.3c1.2-.1 2.1-1.2 1.9-2.4v-.2l-.1-.4z" opacity=".41" fill="#118736"/><linearGradient id="SVGID_2_" gradientUnits="userSpaceOnUse" x1="1606.097" y1="-737.737" x2="1669.437" y2="-708.627" gradientTransform="matrix(.98 .2 .2 -.98 -1255.31 -924.9)"><stop offset="0" stop-color="#23a64d"/><stop offset="1" stop-color="#90dea4" stop-opacity="0"/></linearGradient><path d="M215.4 154.6c11.1-14.6 18.2-44.2 14.8-63-3.8-21.3-24.1-35.8-45.3-32.2-6.1 1-11.8 3.5-16.7 7.2-11.7 8.9-17.4 23.6-14.8 38 .3 1.4.6 2.9 1 4.3 4.3 24 29.8 55.1 47.2 54.5l-2.6.4c-1.2.1-2.1 1.2-1.9 2.4v.2l.1.4c.3 1.3 1.5 2.1 2.8 1.9l8.8-1.3c1.2-.1 2.1-1.2 1.9-2.4v-.2l-.1-.4c-.3-1.3-1.5-2.1-2.8-1.9l-2.7.4c3.8-1.3 7.2-4.2 10.3-8.3z" opacity=".46" fill="url(#SVGID_2_)"/><path class="st5" d="M291.2 182.9L271.4 278"/><path class="st0" d="M340.9 163.8c-30.2-11.7-50-45.8-50.8-85.8-4.9 4.8-8.9 10.6-11.5 17-1.4 3.4-2.5 7-3.3 10.6l-.3 1.8c-.2 1-.3 1.9-.5 2.8-3.8 26.2-.5 56.5 13.8 68.4-1.4-.4-2.9.2-3.5 1.5-.7 1.5-.1 3.3 1.4 4l10.4 5c1.4.9 3.2.6 4.2-.8.9-1.4.6-3.2-.8-4.2-.3-.2-.6-.3-.9-.4l-1.6-.8c12.4 2 29.5-6.5 43.4-19.1z"/><path class="st0" d="M340.9 163.8c3.8-3.5 7.4-7.2 10.6-11.3 3.8-4.3 6.9-9.2 9.2-14.5.1-.3.2-.7.4-1 .1-.2.2-.3.2-.5 9.8-25.3.2-54.7-22-66.4-16.7-8.8-35.9-5-49.1 7.8.7 40 20.5 74.2 50.7 85.9z"/><path d="M340.9 163.8c-30.2-11.7-50-45.8-50.8-85.8-4.9 4.8-8.9 10.6-11.5 17-1.4 3.4-2.5 7-3.3 10.6l-.3 1.8c-.2 1-.3 1.9-.5 2.8-3.8 26.2-.5 56.5 13.8 68.4-1.4-.4-2.9.2-3.5 1.5-.7 1.5-.1 3.3 1.4 4l10.4 5c1.4.9 3.2.6 4.2-.8.9-1.4.6-3.2-.8-4.2-.3-.2-.6-.3-.9-.4l-1.6-.8c12.4 2 29.5-6.5 43.4-19.1z" opacity=".12" fill="#00478d"/><path class="st5" d="M268.4 202.3l5.4 48.6"/><path class="st10" d="M271.2 195.5l-1 .3c5.4-3.3 9.6-10.3 12.5-18.8-7.6 2.7-15.8 3.5-23.9 2.4C233 175.6 214 152.1 209 122c-3.9 8.9-4.4 19.7-.5 30.4 1.1 2.9 2.4 5.7 4.1 8.4.3.4.6.9.9 1.3.4.7.9 1.4 1.4 2 12.9 18.6 32.6 35.6 48.3 34.1l-1.3.4c-1.4.5-2.1 1.9-1.7 3.3l.1.4c.5 1.4 1.9 2.1 3.3 1.7l9.3-3.1c1.4-.5 2.1-1.9 1.7-3.3l-.1-.4c-.4-1.4-1.9-2.2-3.3-1.7z"/><path class="st10" d="M258.8 179.4c8 1.1 16.2.3 23.9-2.4 3.2-10 4.5-20.5 3.7-31-.1-4.8-1-9.6-2.7-14.1-.1-.3-.2-.6-.4-.8 0-.1-.1-.3-.1-.4-8.4-21.2-31.2-33.8-51.6-28.2-10.1 2.7-18.5 9.9-22.6 19.6 4.9 30 24 53.5 49.8 57.3z"/><path d="M271.2 195.5l-1 .3c5.4-3.3 9.6-10.3 12.5-18.8-7.6 2.7-15.8 3.5-23.9 2.4C233 175.6 214 152.1 209 122c-3.9 8.9-4.4 19.7-.5 30.4 1.1 2.9 2.4 5.7 4.1 8.4.3.4.6.9.9 1.3.4.7.9 1.4 1.4 2 12.9 18.6 32.6 35.6 48.3 34.1l-1.3.4c-1.4.5-2.1 1.9-1.7 3.3l.1.4c.5 1.4 1.9 2.1 3.3 1.7l9.3-3.1c1.4-.5 2.1-1.9 1.7-3.3l-.1-.4c-.4-1.4-1.9-2.2-3.3-1.7z" opacity=".31" fill="#efa700"/><linearGradient id="SVGID_3_" gradientUnits="userSpaceOnUse" x1="-2551.938" y1="3910.164" x2="-2478.008" y2="3936.204" gradientTransform="scale(1 -1) rotate(28.1 7040.333 7357.817)"><stop offset="0" stop-color="#eea600"/><stop offset="1" stop-color="#efa700" stop-opacity="0"/></linearGradient><path d="M231.6 102.4c-10.1 2.7-18.4 9.9-22.6 19.6-3.9 8.9-4.4 19.7-.5 30.4 1.1 2.9 2.4 5.7 4.1 8.4.3.4.6.9.9 1.3.4.7.9 1.4 1.4 2 12.9 18.6 32.6 35.6 48.3 34.1l-1.3.4c-1.4.5-2.1 1.9-1.7 3.3l.1.4c.5 1.4 1.9 2.1 3.3 1.7l9.3-3.1c1.4-.5 2.1-1.9 1.7-3.3l-.1-.4c-.5-1.4-1.9-2.1-3.3-1.7l-1 .3c5.4-3.3 9.6-10.3 12.5-18.8 3.2-10 4.5-20.5 3.7-31-.1-4.8-1-9.6-2.7-14.1-.1-.3-.2-.6-.4-.8 0-.1-.1-.3-.1-.4-8.5-21.2-31.3-33.8-51.6-28.3z" opacity=".53" fill="url(#SVGID_3_)"/><path fill-rule="evenodd" clip-rule="evenodd" fill="#34a853" d="M435.6 165l-9.8-3.6 4.1-9.6 9.7 3.6z"/><path class="st14" d="M225.9 51.4l-9.7-3.7 4-9.5 9.8 3.6z"/><path class="st15" d="M131.3 141.6l-1.2-10.1 10.5-1.5 1.2 10.2zM373 174.3l-1.1-10.1 10.5-1.5 1.1 10.1z"/><ellipse transform="rotate(-23.278 321.585 38.917)" cx="321.6" cy="38.9" rx="6.6" ry="6.4" fill="#fbbc04"/><ellipse transform="rotate(-23.278 72.647 120.1)" cx="72.6" cy="120.1" rx="8" ry="7.6" fill="#34a853"/><path class="st14" d="M153.6 190.5c-3.2 1.5-4.5 5.3-2.9 8.5s5.3 4.5 8.5 2.9c3.1-1.5 4.4-5.1 3.1-8.2-1.6-3.3-5.4-4.7-8.7-3.2z"/><ellipse transform="rotate(-23.278 421.988 117.53)" cx="422" cy="117.5" rx="6.6" ry="6.4" fill="#4285f4"/><path class="st19" d="M364.8 34.9l-1.4 15.9 12.9-.5-1.3 16.1 11.4-.5 1.1 16.1M129 80.8L127.9 68l12.2 2.2-.9-13 10.7 2 1.4-12.6"/><path fill="none" stroke="#4285f4" stroke-width="5.32" stroke-miterlimit="10" d="M414.6 205.8l-8.6 9-6.4-7.2"/><path fill-rule="evenodd" clip-rule="evenodd" fill="#e2e3e6" d="M89.3 304.9l78.6.1v80H89.3z"/><path class="st2" d="M89.3 304.9h106l18 80.1H107.2z"/><ellipse cx="135.1" cy="359.5" rx="25.6" ry="25.5" fill="#f8f9fa"/><defs><ellipse id="SVGID_4_" cx="135.1" cy="359.5" rx="25.6" ry="25.5"/></defs><clipPath id="SVGID_5_"><use xlink:href="#SVGID_4_" overflow="visible"/></clipPath><g clip-path="url(#SVGID_5_)"><path d="M152.5 379.4c-22.1 2.9-36.6-5.4-43.5-25-4.4 32.1 20.3 32.8 26.1 32.8 3.8 0 9.6-2.6 17.4-7.8z" fill-rule="evenodd" clip-rule="evenodd" fill="#e8eaed"/></g><ellipse cx="386.5" cy="365" rx="20.1" ry="20" fill="#fff"/><defs><ellipse id="SVGID_6_" cx="386.5" cy="365" rx="20.1" ry="20"/></defs><clipPath id="SVGID_7_"><use xlink:href="#SVGID_6_" overflow="visible"/></clipPath><g clip-path="url(#SVGID_7_)"><path d="M400.1 380.6c-17.3 2.3-28.7-4.2-34.1-19.6-3.5 25.1 15.9 25.7 20.5 25.7 3 0 7.5-2.1 13.6-6.1z" fill-rule="evenodd" clip-rule="evenodd" fill="#f8f9fa"/></g><path d="M229.6 385.4l-34.5-150.7H186c-2.2 0-4.1 1.6-4.5 3.8l-24.9 146.9h73z" fill-rule="evenodd" clip-rule="evenodd" fill="#bdc1c6"/><path class="st29" d="M188 234.8l126.9.9-1.2 149.7H177.9l5.5-146.2c.1-2.5 2.1-4.5 4.6-4.4z"/><path class="st2" d="M348.3 351.9l-12.5-82.1-6.5-30c-.4-2.1-2.3-3.6-4.4-3.6l-133.1-1.4c-2.5 0-4.6 2-4.6 4.5l-.2 32 13.7 114.1h114.1l33.5-33.5z"/><path class="st30" d="M208.3 291.1h53.3M211.3 313.9h54.8M217.4 336.7h108.2M219.8 359.5h108.1"/><path class="st29" d="M314.8 385.4l33.5-33.2-33.3-.3z"/><path class="st31" d="M299.2 250.9c-6.5-.2-11.6-5.6-11.5-12.1.2-6.2 5.2-11.3 11.5-11.5M221.3 250.9c-6.5-.2-11.6-5.6-11.5-12.1.2-6.2 5.2-11.3 11.5-11.5"/><path d="M224.9 379.9c-.5-.5-.7-1.1-.7-1.8s.2-1.3.7-1.8c.9-.9 2.4-1 3.3-.1l.1.1c.5.5.7 1.1.7 1.8s-.2 1.3-.7 1.8c-.9.9-2.3 1-3.3.1l-.1-.1zm-.1-14.3v-5.4c0-.3.3-.6.6-.6h2.5c.3 0 .6.3.6.6v5.4l-.3 7.2c0 .3-.3.6-.6.6h-1.9c-.3 0-.6-.3-.6-.6l-.3-7.2z" fill="none"/><path d="M336.1 271.3l-5.3-32.7c-.4-2.2-2.3-3.8-4.5-3.8H187.6c-2.5 0-4.6 2-4.6 4.6v.6l3.8 31.4h149.3z" fill-rule="evenodd" clip-rule="evenodd" fill="#1a73e8"/><defs><path id="SVGID_8_" d="M336.1 271.3l-5.3-32.7c-.4-2.2-2.3-3.8-4.5-3.8H187.6c-2.5 0-4.6 2-4.6 4.6v.6l3.8 31.4h149.3z"/></defs><clipPath id="SVGID_9_"><use xlink:href="#SVGID_8_" overflow="visible"/></clipPath><g clip-path="url(#SVGID_9_)"><path class="st14" d="M350.5 271.3l-5.5-33.9c-.4-2.3-2.3-4-4.7-4H196.5c-2.6 0-4.7 2.1-4.7 4.7v.6l4 32.5 154.7.1z"/></g><path class="st35" d="M298.7 227.3c6.5.2 11.6 5.6 11.5 12.1-.2 6.2-5.2 11.3-11.5 11.5M221.3 227.3c6.5.2 11.6 5.6 11.5 12.1-.2 6.2-5.2 11.3-11.5 11.5"/><path class="st36" d="M286.6 291.3c-.7-3.2 1.3-6.3 4.5-7.1.5-.1 1-.2 1.5-.1 4.1.1 7.6 3.1 8.4 7.2.7 3.2-1.3 6.3-4.5 7.1-.5.1-1 .2-1.5.1M295 298.6c5.6.2 10.4 4.2 11.4 9.8.9 5.4-2.7 9.8-8.1 9.8-5.6-.2-10.3-4.2-11.4-9.8M312.4 290.2l4.8-6.2 5.4 34.1"/><path fill="none" stroke="#dadce0" stroke-width="1.77" stroke-miterlimit="10" d="M18.2 386.3h467.9"/></svg>