<svg id="Layer_1" data-name="Layer 1" xmlns="http://www.w3.org/2000/svg" viewBox="0 0 500 500"><defs><style>.cls-1{fill:#eff6f9;}.cls-2{fill:#ae8162;}.cls-3{fill:#9b6b4b;}.cls-4{fill:#414042;}.cls-5{fill:#58595b;}.cls-6{fill:#bcbec0;}.cls-7{fill:#dd4a4a;}.cls-8{fill:#9b6c4c;}.cls-9{fill:#272223;}.cls-10{fill:#dc9b80;}.cls-11{fill:#fbb040;}.cls-12{fill:#e6e7e8;}</style></defs><title>Tawk_Avatar-Male</title><path class="cls-1" d="M250,463.48a177,177,0,1,1,177-177,177,177,0,0,1-177,177"/><path class="cls-2" d="M294.86,341.33v-32l-44.86,32-44.86-32v32c0,13.87-14.11,13.87-14.11,13.87l59,58.72,59-58.72S294.86,355.2,294.86,341.33Z"/><path class="cls-3" d="M294.86,310.2l-44.86,32-44.86-32v32c0,.45,0,.85-.08,1.27,24.59,11,44.94,12,44.94,12s20.35-.93,44.94-12c0-.42-.08-.82-.08-1.27Z"/><path class="cls-4" d="M250,463.48a176.7,176.7,0,0,0,142.66-72.25L316,358h-7.14L289.84,379.5a53.21,53.21,0,0,1-79.68,0l-19-21.53H184l-77.25,32.41A176.71,176.71,0,0,0,250,463.48"/><polygon class="cls-5" points="250.04 463.48 150.25 404.97 166.24 386.12 131.34 380.05 175.27 361.62 250.04 383.23 250.04 463.48"/><polygon class="cls-6" points="247.6 384.67 250.04 463.48 209.69 407.01 247.6 384.67"/><polygon class="cls-5" points="250.04 463.48 349.82 404.97 333.83 386.12 368.73 380.05 324.8 361.62 250.04 383.23 250.04 463.48"/><polygon class="cls-6" points="252.47 384.67 250.04 463.48 290.38 407.01 252.47 384.67"/><path class="cls-7" d="M263.75,463l-6-65.13-7.66-7.15v-.16l-.09.08-.08-.08v.16l-7.66,7.15-6,65.13C236.27,463.65,263.75,463.65,263.75,463Z"/><polygon class="cls-7" points="250.06 383.23 249.97 383.23 233.48 383.23 242.27 403.13 250.01 403.13 250.03 403.13 257.77 403.13 265.9 383.23 250.06 383.23"/><ellipse class="cls-8" cx="137.44" cy="199.2" rx="30.72" ry="35.62"/><ellipse class="cls-8" cx="364.26" cy="199.2" rx="30.72" ry="35.62"/><path class="cls-2" d="M250.85,36.52a113.41,113.41,0,0,0-113.41,113.4v89.86c0,62.63,71.56,110.65,111.64,110.48,38.92-.16,115.18-47.85,115.18-110.48V149.92A113.4,113.4,0,0,0,250.85,36.52Z"/><path class="cls-9" d="M341.54,249.25c-7.88,16.6-22.1,32.74-42.17,31.7-10-.52,1.9-15.07-8.22-21.29-7.5-4.62-73.09-4.62-80.6,0-10.12,6.22,1.83,20.77-8.21,21.29-20.08,1-34.3-15.1-42.17-31.7-7.48-15.78-22.72-21.32-22.72-21.32s-3.94,35,12.3,60.05c24.2,37.3,60.63,54.45,81.45,64.42a47,47,0,0,0,6,2.38l-.06.16a48.41,48.41,0,0,0,27.34,0l0-.16a46.89,46.89,0,0,0,6-2.38c20.83-10,57.3-28.58,81.5-65.88,16.24-25,12.26-58.59,12.26-58.59S349,233.47,341.54,249.25Zm-56.45,48.23c0,2.76-12.78,12-25.56,12.38,0,0-.78-1.6-1.66-6.87-.35-2.13-1.35-3.16-2.74-3.59a.53.53,0,0,0,0-.12c-4.52-1.46-10.71-.84-11.33,3.71-.72,5.3-1.66,6.87-1.66,6.87-12.78-.34-25.56-9.62-25.56-12.38s-.66-23.72,0-29.61c.42-3.72,30.35-.39,34.24-.86,3.89.47,33.82-2.86,34.24.86C285.76,273.76,285.09,294.73,285.09,297.48Z"/><path class="cls-9" d="M220.43,203.08a4,4,0,0,1-4-3.34c-.69-4-5.15-11.61-17.06-11.61-15.07,0-18.14,10.35-18.26,10.79a4.06,4.06,0,0,1-4.94,2.83,4,4,0,0,1-2.86-4.88c1.49-5.81,8.87-16.8,26.06-16.81,15,0,23.49,9.49,25,18.3a4,4,0,0,1-4,4.72Z"/><path class="cls-9" d="M283.06,203.08a4.11,4.11,0,0,1-.69-.06,4,4,0,0,1-3.28-4.66c1.52-8.81,10-18.3,25-18.3,17.19,0,24.56,11,26.06,16.81a4,4,0,0,1-7.81,2c-.14-.53-3.25-10.79-18.25-10.79-11.91,0-16.37,7.59-17.07,11.61A4,4,0,0,1,283.06,203.08Z"/><path class="cls-3" d="M279.58,232.76c0-3.14-4.39-6-9.24-8.11-6.07-2.64-11.14-7-15.49-12-3.14-3.6-6.15-3.16-9,.56a40.76,40.76,0,0,1-15.18,11.63c-4.53,2.09-8.5,4.86-8.5,7.9a11.79,11.79,0,0,0,11.16,11.77,19.25,19.25,0,0,0,35.14,0A11.79,11.79,0,0,0,279.58,232.76Z"/><path class="cls-10" d="M251.33,288.22a57.48,57.48,0,0,1-31.19-9.47,4,4,0,0,1,4.79-6.49c1.06.78,24.87,17.69,52-.12a4,4,0,1,1,4.42,6.74A54,54,0,0,1,251.33,288.22Z"/><rect class="cls-3" x="236.52" y="183.58" width="28.66" height="52.29" rx="11.31" ry="11.31"/><path class="cls-11" d="M140.13,175.93,158,168.2l-2.56,16.39-19.21,3.81-.73-3.3A8.1,8.1,0,0,1,140.13,175.93Z"/><path class="cls-11" d="M361.57,175.93l-17.82-7.73,2.53,15.08,19.24,5.12.73-3.3A8.08,8.08,0,0,0,361.57,175.93Z"/><path class="cls-11" d="M232.87,178.35a36.73,36.73,0,0,1,.41,10.36c6.6-1,21.88-2.54,35.85.83a22.56,22.56,0,0,1,1.81-9.45C264,176.93,250.8,173.27,232.87,178.35Z"/><path class="cls-11" d="M237.38,184.2v-2.34c-.06-.68-1.72-16.6-28.12-18.4-23.74-1.62-50.53,1.14-51.66,1.26h0a3.5,3.5,0,0,0-2.72,1.82h0c-.23.43-1.68,3.38-2.47,10.18l-.28,0,.15,1.1q-.08.83-.15,1.71l.36-.21,3.87,28.26c1.32,9.63,10.23,16.89,20.72,16.89h33.6c9.48,0,17.79-5.93,20.2-14.41l7.3-25.7Zm-14.17,24c-1.49,5.27-6.65,9-12.54,9h-33.6c-6.51,0-12-4.51-12.87-10.49L160,175.83l-.42,0a35.86,35.86,0,0,1,.92-4.4c6.88-.62,29-2.35,48.29-1s21.44,10.86,21.61,11.92V183Z"/><path class="cls-11" d="M263.73,184.39l7.29,25.7c2.41,8.48,10.72,14.41,20.2,14.41h33.6c10.5,0,19.4-7.26,20.72-16.89l3.87-28.26.36.21c0-.59-.1-1.16-.15-1.71l.15-1.1-.27,0c-.8-6.8-2.25-9.75-2.48-10.18h0a3.47,3.47,0,0,0-2.71-1.82h0c-1.13-.12-27.92-2.88-51.67-1.26-26.4,1.8-28.06,17.72-28.11,18.4l0,.3v2Zm7.78-1.4v-.62c.18-1.06,2.28-10.61,21.61-11.92s41.41.41,48.29,1a32.41,32.41,0,0,1,.92,4.4l-.41,0-4.23,30.86c-.82,6-6.35,10.49-12.87,10.49h-33.6c-5.89,0-11.05-3.68-12.54-9Z"/><polygon class="cls-12" points="250.04 383.23 197.09 409.95 175.27 361.62 191.03 345.08 250.04 383.23"/><polygon class="cls-12" points="250.04 383.23 302.98 409.95 324.8 361.62 309.04 345.08 250.04 383.23"/></svg>